<svg viewBox="0 0 1024 768" xmlns="http://www.w3.org/2000/svg" xmlns:xlink="http://www.w3.org/1999/xlink" id="svg4" xml:space="preserve" overflow="hidden"><defs id="defs8"></defs><g id="logo-group" transform="matrix(1.289 0 0 1.289 -147.96 -110.97)"><path d="M318.95 365.27C315.245 365.27 313.392 367.022 313.392 370.528L313.392 397.421C313.392 400.967 315.245 402.739 318.95 402.739L325.284 402.739C329.029 402.739 330.902 400.967 330.902 397.421L330.902 391.087 325.403 391.087 325.403 396.763C325.403 397.48 325.285 397.959 325.046 398.198 324.847 398.397 324.389 398.497 323.672 398.497L320.623 398.497C319.906 398.497 319.428 398.397 319.189 398.198 318.95 397.959 318.83 397.48 318.83 396.763L318.83 371.246C318.83 370.529 318.95 370.071 319.189 369.872 319.428 369.633 319.906 369.513 320.623 369.513L323.672 369.513C324.389 369.513 324.847 369.633 325.046 369.872 325.285 370.071 325.403 370.529 325.403 371.246L325.403 376.983 330.902 376.983 330.902 370.528C330.902 367.022 329.029 365.27 325.284 365.27ZM353.987 365.27C350.242 365.27 348.368 367.022 348.368 370.528L348.368 397.421C348.368 400.927 350.242 402.68 353.987 402.68L360.619 402.68C364.324 402.68 366.177 400.927 366.177 397.421L366.177 370.528C366.177 367.022 364.324 365.27 360.619 365.27ZM384.578 365.27 384.578 402.68 389.537 402.68 389.537 375.668 397.426 402.68 402.864 402.68 402.864 365.27 397.905 365.27 397.905 391.505 390.256 365.27ZM418.73 365.27 418.73 369.632 425.005 369.632 425.005 402.679 430.384 402.679 430.384 369.629 436.658 369.629 436.658 365.267ZM457.866 365.27C454.121 365.27 452.249 367.022 452.249 370.528L452.249 397.421C452.249 400.927 454.121 402.68 457.866 402.68L464.5 402.68C468.205 402.68 470.056 400.927 470.056 397.421L470.056 370.528C470.056 367.022 468.205 365.27 464.5 365.27ZM488.278 365.27 488.278 397.42C488.278 400.926 490.15 402.679 493.895 402.679L500.529 402.679C504.274 402.679 506.146 400.926 506.146 397.42L506.146 365.27 500.707 365.27 500.707 396.584C500.707 397.301 500.589 397.778 500.35 398.017 500.151 398.217 499.672 398.317 498.915 398.317L495.509 398.317C494.792 398.317 494.314 398.217 494.075 398.017 493.836 397.778 493.716 397.301 493.716 396.584L493.716 365.27ZM524.601 365.27 524.601 402.68 529.979 402.68 529.979 387.561 532.908 387.561 538.525 402.68 544.322 402.68 538.405 387.441C541.074 387.003 542.41 385.27 542.41 382.242L542.41 370.528C542.41 367.022 540.557 365.27 536.852 365.27ZM560.744 365.27 560.744 402.68 566.123 402.68 566.123 387.561 569.05 387.561 574.669 402.68 580.465 402.68 574.549 387.441C577.219 387.003 578.553 385.27 578.553 382.242L578.553 370.528C578.553 367.022 576.7 365.27 572.995 365.27ZM597.366 365.27 597.366 402.68 602.745 402.68 602.745 365.27ZM622.063 365.27 622.063 402.68 635.091 402.68C638.796 402.68 640.649 400.927 640.649 397.421L640.649 370.528C640.649 367.022 638.796 365.27 635.091 365.27ZM664.281 365.27C660.576 365.27 658.723 367.022 658.723 370.528L658.723 397.421C658.723 400.967 660.576 402.739 664.281 402.739L670.675 402.739C674.38 402.739 676.233 400.967 676.233 397.421L676.233 383.437 667.807 383.437 667.807 387.621 670.795 387.621 670.795 396.763C670.795 397.481 670.675 397.959 670.436 398.198 670.197 398.398 669.72 398.497 669.003 398.497L665.954 398.497C665.237 398.497 664.759 398.398 664.52 398.198 664.281 397.959 664.161 397.481 664.161 396.763L664.161 371.246C664.161 370.529 664.281 370.071 664.52 369.872 664.759 369.633 665.237 369.513 665.954 369.513L669.003 369.513C669.72 369.513 670.197 369.633 670.436 369.872 670.675 370.071 670.795 370.529 670.795 371.246L670.795 376.206 676.233 376.206 676.233 370.528C676.233 367.022 674.38 365.27 670.675 365.27ZM694.35 365.27 694.35 402.68 710.604 402.68 710.604 398.31 699.788 398.31 699.788 385.521 708.393 385.521 708.393 381.159 699.788 381.159 699.788 369.629 710.186 369.629 710.186 365.266ZM627.502 369.513 633.419 369.513C634.136 369.513 634.613 369.633 634.852 369.872 635.091 370.071 635.211 370.529 635.211 371.246L635.211 396.704C635.211 397.421 635.091 397.898 634.852 398.138 634.613 398.337 634.136 398.438 633.419 398.438L627.502 398.438ZM355.542 369.632 359.007 369.632C359.725 369.632 360.203 369.752 360.442 369.992 360.681 370.191 360.801 370.649 360.801 371.366L360.801 396.584C360.801 397.301 360.681 397.778 360.442 398.017 360.203 398.216 359.724 398.317 359.007 398.317L355.542 398.317C354.825 398.317 354.346 398.216 354.107 398.017 353.908 397.778 353.809 397.301 353.809 396.584L353.809 371.366C353.809 370.649 353.908 370.191 354.107 369.992 354.346 369.752 354.825 369.632 355.542 369.632ZM459.422 369.632 462.889 369.632C463.606 369.632 464.083 369.752 464.322 369.992 464.561 370.191 464.681 370.649 464.681 371.366L464.681 396.584C464.681 397.301 464.561 397.778 464.322 398.017 464.083 398.216 463.606 398.317 462.889 398.317L459.422 398.317C458.705 398.317 458.228 398.216 457.989 398.017 457.789 397.778 457.69 397.301 457.69 396.584L457.69 371.366C457.69 370.649 457.789 370.191 457.989 369.992 458.228 369.752 458.705 369.632 459.422 369.632ZM529.982 369.632 535.241 369.632C535.958 369.632 536.436 369.752 536.675 369.992 536.914 370.191 537.034 370.649 537.034 371.366L537.034 381.524C537.034 382.241 536.914 382.72 536.675 382.959 536.436 383.158 535.958 383.257 535.241 383.257L529.982 383.257ZM566.127 369.632 571.385 369.632C572.102 369.632 572.581 369.752 572.82 369.992 573.059 370.191 573.179 370.649 573.179 371.366L573.179 381.524C573.179 382.241 573.059 382.72 572.82 382.959 572.581 383.158 572.102 383.257 571.385 383.257L566.127 383.257Z" id="path127263" stroke-width="0" stroke-miterlimit="2" fill="#FFFFFF"/></g></svg>